<svg xmlns="http://www.w3.org/2000/svg" viewBox="0 0 640 300" width="640" height="300" role="img" aria-label="gpus">
  <defs>
    <pattern id="g" width="16" height="16" patternUnits="userSpaceOnUse"><path d="M16 0H0V16" fill="none" stroke="#C6FF34" stroke-opacity=".07" stroke-width="1"/></pattern>
    <radialGradient id="glow" cx="50%" cy="50%" r="55%"><stop offset="0" stop-color="#C6FF34" stop-opacity=".10"/><stop offset="1" stop-color="#C6FF34" stop-opacity="0"/></radialGradient>
    <linearGradient id="fill" x1="0" y1="0" x2="0" y2="1"><stop offset="0" stop-color="#C6FF34" stop-opacity=".16"/><stop offset="1" stop-color="#C6FF34" stop-opacity=".03"/></linearGradient>
  </defs>
  <rect width="640" height="300" rx="18" fill="#0C0F0B"/>
  <rect width="640" height="300" rx="18" fill="url(#g)"/>
  <rect width="640" height="300" rx="18" fill="url(#glow)"/>
  <g fill="none" stroke="#C6FF34" stroke-width="2.2" stroke-linecap="round" stroke-linejoin="round">
    <rect x="262" y="100" width="116" height="100" rx="10" fill="url(#fill)"/>
    <rect x="292" y="126" width="56" height="48" rx="6"/>
    <path d="M280 100V86M304 100V86M328 100V86M352 100V86M280 214v-14M304 214v-14M328 214v-14M352 214v-14"/>
    <path d="M262 124h-14M262 150h-14M262 176h-14M392 124h-14M392 150h-14M392 176h-14"/>
    <path d="M306 150h28" stroke-opacity=".6"/>
  </g>
</svg>